<svg xmlns="http://www.w3.org/2000/svg" width="1200" height="720" viewBox="0 0 1200 720">
<metadata>DynLex compiler SHA256 38ebb889d576c9d9343f3a0cbbfa7025be611cef65a010e23662169b7457fc5a; native O2 geometry</metadata>
<rect width="1200" height="720" fill="#f7f9fc"/>
<text x="54" y="58" font-family="Arial, sans-serif" font-size="30" font-weight="700" fill="#17233c">Dynedra Lab</text>
<text x="54" y="88" font-family="Arial, sans-serif" font-size="15" fill="#60708d">Native circular rim operations · exact B-rep edge sampling</text>
<rect x="50" y="118" width="535" height="548" rx="18" fill="#ffffff" stroke="#dde5f1"/>
<text x="78" y="158" font-family="Arial, sans-serif" font-size="22" font-weight="700" fill="#17233c">Rim fillet</text>
<text x="78" y="184" font-family="Arial, sans-serif" font-size="14" fill="#60708d">3 vertices · 5 edges · 4 faces · 10 uses · 0 flaws</text>
<line x1="94" y1="212.00" x2="541" y2="212.00" stroke="#edf1f7"/>
<line x1="94" y1="307.00" x2="541" y2="307.00" stroke="#edf1f7"/>
<line x1="94" y1="402.00" x2="541" y2="402.00" stroke="#edf1f7"/>
<line x1="94" y1="497.00" x2="541" y2="497.00" stroke="#edf1f7"/>
<line x1="94" y1="592.00" x2="541" y2="592.00" stroke="#edf1f7"/>
<line x1="251.075" y1="400.129" x2="481.234" y2="462.818" stroke="#c6d0df" stroke-width="1" stroke-dasharray="5 5"/>
<line x1="153.766" y1="548.402" x2="383.925" y2="611.090" stroke="#c6d0df" stroke-width="1" stroke-dasharray="5 5"/>
<line x1="251.075" y1="209.007" x2="481.234" y2="271.696" stroke="#c6d0df" stroke-width="1" stroke-dasharray="5 5"/>
<line x1="153.766" y1="357.280" x2="383.925" y2="419.968" stroke="#c6d0df" stroke-width="1" stroke-dasharray="5 5"/>
<line x1="251.075" y1="400.129" x2="153.766" y2="548.402" stroke="#c6d0df" stroke-width="1" stroke-dasharray="5 5"/>
<line x1="481.234" y1="462.818" x2="383.925" y2="611.090" stroke="#c6d0df" stroke-width="1" stroke-dasharray="5 5"/>
<line x1="251.075" y1="209.007" x2="153.766" y2="357.280" stroke="#c6d0df" stroke-width="1" stroke-dasharray="5 5"/>
<line x1="481.234" y1="271.696" x2="383.925" y2="419.968" stroke="#c6d0df" stroke-width="1" stroke-dasharray="5 5"/>
<line x1="251.075" y1="400.129" x2="251.075" y2="209.007" stroke="#c6d0df" stroke-width="1" stroke-dasharray="5 5"/>
<line x1="481.234" y1="462.818" x2="481.234" y2="271.696" stroke="#c6d0df" stroke-width="1" stroke-dasharray="5 5"/>
<line x1="153.766" y1="548.402" x2="153.766" y2="357.280" stroke="#c6d0df" stroke-width="1" stroke-dasharray="5 5"/>
<line x1="383.925" y1="611.090" x2="383.925" y2="419.968" stroke="#c6d0df" stroke-width="1" stroke-dasharray="5 5"/>
<line x1="432.579" y1="517.842" x2="425.243" y2="527.251" stroke="#245bc7" stroke-width="2.4" stroke-linecap="round"/>
<line x1="425.243" y1="527.251" x2="416.066" y2="535.962" stroke="#245bc7" stroke-width="2.4" stroke-linecap="round"/>
<line x1="416.066" y1="535.962" x2="405.200" y2="543.826" stroke="#245bc7" stroke-width="2.4" stroke-linecap="round"/>
<line x1="405.200" y1="543.826" x2="392.835" y2="550.711" stroke="#245bc7" stroke-width="2.4" stroke-linecap="round"/>
<line x1="392.835" y1="550.711" x2="379.179" y2="556.496" stroke="#245bc7" stroke-width="2.4" stroke-linecap="round"/>
<line x1="379.179" y1="556.496" x2="364.470" y2="561.084" stroke="#245bc7" stroke-width="2.4" stroke-linecap="round"/>
<line x1="364.470" y1="561.084" x2="348.955" y2="564.395" stroke="#245bc7" stroke-width="2.4" stroke-linecap="round"/>
<line x1="348.955" y1="564.395" x2="332.903" y2="566.374" stroke="#245bc7" stroke-width="2.4" stroke-linecap="round"/>
<line x1="332.903" y1="566.374" x2="316.587" y2="566.985" stroke="#245bc7" stroke-width="2.4" stroke-linecap="round"/>
<line x1="316.587" y1="566.985" x2="300.288" y2="566.221" stroke="#245bc7" stroke-width="2.4" stroke-linecap="round"/>
<line x1="300.288" y1="566.221" x2="284.283" y2="564.091" stroke="#245bc7" stroke-width="2.4" stroke-linecap="round"/>
<line x1="284.283" y1="564.091" x2="268.845" y2="560.634" stroke="#245bc7" stroke-width="2.4" stroke-linecap="round"/>
<line x1="268.845" y1="560.634" x2="254.240" y2="555.908" stroke="#245bc7" stroke-width="2.4" stroke-linecap="round"/>
<line x1="254.240" y1="555.908" x2="240.718" y2="549.996" stroke="#245bc7" stroke-width="2.4" stroke-linecap="round"/>
<line x1="240.718" y1="549.996" x2="228.510" y2="542.996" stroke="#245bc7" stroke-width="2.4" stroke-linecap="round"/>
<line x1="228.510" y1="542.996" x2="217.824" y2="535.030" stroke="#245bc7" stroke-width="2.4" stroke-linecap="round"/>
<line x1="217.824" y1="535.030" x2="208.844" y2="526.232" stroke="#245bc7" stroke-width="2.4" stroke-linecap="round"/>
<line x1="208.844" y1="526.232" x2="201.722" y2="516.756" stroke="#245bc7" stroke-width="2.4" stroke-linecap="round"/>
<line x1="201.722" y1="516.756" x2="196.583" y2="506.762" stroke="#245bc7" stroke-width="2.4" stroke-linecap="round"/>
<line x1="196.583" y1="506.762" x2="193.510" y2="496.421" stroke="#245bc7" stroke-width="2.4" stroke-linecap="round"/>
<line x1="193.510" y1="496.421" x2="192.561" y2="485.910" stroke="#245bc7" stroke-width="2.4" stroke-linecap="round"/>
<line x1="192.561" y1="485.910" x2="193.749" y2="475.409" stroke="#245bc7" stroke-width="2.4" stroke-linecap="round"/>
<line x1="193.749" y1="475.409" x2="197.055" y2="465.099" stroke="#245bc7" stroke-width="2.4" stroke-linecap="round"/>
<line x1="197.055" y1="465.099" x2="202.421" y2="455.153" stroke="#245bc7" stroke-width="2.4" stroke-linecap="round"/>
<line x1="202.421" y1="455.153" x2="209.757" y2="445.745" stroke="#245bc7" stroke-width="2.4" stroke-linecap="round"/>
<line x1="209.757" y1="445.745" x2="218.934" y2="437.033" stroke="#245bc7" stroke-width="2.4" stroke-linecap="round"/>
<line x1="218.934" y1="437.033" x2="229.800" y2="429.169" stroke="#245bc7" stroke-width="2.4" stroke-linecap="round"/>
<line x1="229.800" y1="429.169" x2="242.165" y2="422.285" stroke="#245bc7" stroke-width="2.4" stroke-linecap="round"/>
<line x1="242.165" y1="422.285" x2="255.821" y2="416.500" stroke="#245bc7" stroke-width="2.4" stroke-linecap="round"/>
<line x1="255.821" y1="416.500" x2="270.530" y2="411.911" stroke="#245bc7" stroke-width="2.4" stroke-linecap="round"/>
<line x1="270.530" y1="411.911" x2="286.045" y2="408.601" stroke="#245bc7" stroke-width="2.4" stroke-linecap="round"/>
<line x1="286.045" y1="408.601" x2="302.097" y2="406.621" stroke="#245bc7" stroke-width="2.4" stroke-linecap="round"/>
<line x1="302.097" y1="406.621" x2="318.413" y2="406.010" stroke="#245bc7" stroke-width="2.4" stroke-linecap="round"/>
<line x1="318.413" y1="406.010" x2="334.712" y2="406.775" stroke="#245bc7" stroke-width="2.4" stroke-linecap="round"/>
<line x1="334.712" y1="406.775" x2="350.717" y2="408.905" stroke="#245bc7" stroke-width="2.4" stroke-linecap="round"/>
<line x1="350.717" y1="408.905" x2="366.155" y2="412.362" stroke="#245bc7" stroke-width="2.4" stroke-linecap="round"/>
<line x1="366.155" y1="412.362" x2="380.760" y2="417.087" stroke="#245bc7" stroke-width="2.4" stroke-linecap="round"/>
<line x1="380.760" y1="417.087" x2="394.282" y2="423.000" stroke="#245bc7" stroke-width="2.4" stroke-linecap="round"/>
<line x1="394.282" y1="423.000" x2="406.490" y2="430.000" stroke="#245bc7" stroke-width="2.4" stroke-linecap="round"/>
<line x1="406.490" y1="430.000" x2="417.176" y2="437.966" stroke="#245bc7" stroke-width="2.4" stroke-linecap="round"/>
<line x1="417.176" y1="437.966" x2="426.156" y2="446.763" stroke="#245bc7" stroke-width="2.4" stroke-linecap="round"/>
<line x1="426.156" y1="446.763" x2="433.278" y2="456.239" stroke="#245bc7" stroke-width="2.4" stroke-linecap="round"/>
<line x1="433.278" y1="456.239" x2="438.417" y2="466.234" stroke="#245bc7" stroke-width="2.4" stroke-linecap="round"/>
<line x1="438.417" y1="466.234" x2="441.490" y2="476.575" stroke="#245bc7" stroke-width="2.4" stroke-linecap="round"/>
<line x1="441.490" y1="476.575" x2="442.439" y2="487.086" stroke="#245bc7" stroke-width="2.4" stroke-linecap="round"/>
<line x1="442.439" y1="487.086" x2="441.251" y2="497.586" stroke="#245bc7" stroke-width="2.4" stroke-linecap="round"/>
<line x1="441.251" y1="497.586" x2="437.945" y2="507.897" stroke="#245bc7" stroke-width="2.4" stroke-linecap="round"/>
<line x1="437.945" y1="507.897" x2="432.579" y2="517.842" stroke="#245bc7" stroke-width="2.4" stroke-linecap="round"/>
<line x1="409.564" y1="530.685" x2="403.696" y2="538.212" stroke="#245bc7" stroke-width="2.4" stroke-linecap="round"/>
<line x1="403.696" y1="538.212" x2="396.352" y2="545.182" stroke="#245bc7" stroke-width="2.4" stroke-linecap="round"/>
<line x1="396.352" y1="545.182" x2="387.660" y2="551.473" stroke="#245bc7" stroke-width="2.4" stroke-linecap="round"/>
<line x1="387.660" y1="551.473" x2="377.767" y2="556.980" stroke="#245bc7" stroke-width="2.4" stroke-linecap="round"/>
<line x1="377.767" y1="556.980" x2="366.843" y2="561.609" stroke="#245bc7" stroke-width="2.4" stroke-linecap="round"/>
<line x1="366.843" y1="561.609" x2="355.076" y2="565.279" stroke="#245bc7" stroke-width="2.4" stroke-linecap="round"/>
<line x1="355.076" y1="565.279" x2="342.665" y2="567.928" stroke="#245bc7" stroke-width="2.4" stroke-linecap="round"/>
<line x1="342.665" y1="567.928" x2="329.823" y2="569.511" stroke="#245bc7" stroke-width="2.4" stroke-linecap="round"/>
<line x1="329.823" y1="569.511" x2="316.771" y2="570.000" stroke="#245bc7" stroke-width="2.4" stroke-linecap="round"/>
<line x1="316.771" y1="570.000" x2="303.731" y2="569.388" stroke="#245bc7" stroke-width="2.4" stroke-linecap="round"/>
<line x1="303.731" y1="569.388" x2="290.926" y2="567.685" stroke="#245bc7" stroke-width="2.4" stroke-linecap="round"/>
<line x1="290.926" y1="567.685" x2="278.576" y2="564.919" stroke="#245bc7" stroke-width="2.4" stroke-linecap="round"/>
<line x1="278.576" y1="564.919" x2="266.892" y2="561.139" stroke="#245bc7" stroke-width="2.4" stroke-linecap="round"/>
<line x1="266.892" y1="561.139" x2="256.074" y2="556.408" stroke="#245bc7" stroke-width="2.4" stroke-linecap="round"/>
<line x1="256.074" y1="556.408" x2="246.308" y2="550.808" stroke="#245bc7" stroke-width="2.4" stroke-linecap="round"/>
<line x1="246.308" y1="550.808" x2="237.759" y2="544.435" stroke="#245bc7" stroke-width="2.4" stroke-linecap="round"/>
<line x1="237.759" y1="544.435" x2="230.575" y2="537.398" stroke="#245bc7" stroke-width="2.4" stroke-linecap="round"/>
<line x1="230.575" y1="537.398" x2="224.877" y2="529.817" stroke="#245bc7" stroke-width="2.4" stroke-linecap="round"/>
<line x1="224.877" y1="529.817" x2="220.766" y2="521.821" stroke="#245bc7" stroke-width="2.4" stroke-linecap="round"/>
<line x1="220.766" y1="521.821" x2="218.309" y2="513.548" stroke="#245bc7" stroke-width="2.4" stroke-linecap="round"/>
<line x1="218.309" y1="513.548" x2="217.549" y2="505.140" stroke="#245bc7" stroke-width="2.4" stroke-linecap="round"/>
<line x1="217.549" y1="505.140" x2="218.499" y2="496.740" stroke="#245bc7" stroke-width="2.4" stroke-linecap="round"/>
<line x1="218.499" y1="496.740" x2="221.143" y2="488.490" stroke="#245bc7" stroke-width="2.4" stroke-linecap="round"/>
<line x1="221.143" y1="488.490" x2="225.436" y2="480.534" stroke="#245bc7" stroke-width="2.4" stroke-linecap="round"/>
<line x1="225.436" y1="480.534" x2="231.304" y2="473.008" stroke="#245bc7" stroke-width="2.4" stroke-linecap="round"/>
<line x1="231.304" y1="473.008" x2="238.648" y2="466.038" stroke="#245bc7" stroke-width="2.4" stroke-linecap="round"/>
<line x1="238.648" y1="466.038" x2="247.340" y2="459.747" stroke="#245bc7" stroke-width="2.4" stroke-linecap="round"/>
<line x1="247.340" y1="459.747" x2="257.233" y2="454.239" stroke="#245bc7" stroke-width="2.4" stroke-linecap="round"/>
<line x1="257.233" y1="454.239" x2="268.157" y2="449.611" stroke="#245bc7" stroke-width="2.4" stroke-linecap="round"/>
<line x1="268.157" y1="449.611" x2="279.924" y2="445.941" stroke="#245bc7" stroke-width="2.4" stroke-linecap="round"/>
<line x1="279.924" y1="445.941" x2="292.335" y2="443.292" stroke="#245bc7" stroke-width="2.4" stroke-linecap="round"/>
<line x1="292.335" y1="443.292" x2="305.177" y2="441.709" stroke="#245bc7" stroke-width="2.4" stroke-linecap="round"/>
<line x1="305.177" y1="441.709" x2="318.229" y2="441.220" stroke="#245bc7" stroke-width="2.4" stroke-linecap="round"/>
<line x1="318.229" y1="441.220" x2="331.269" y2="441.832" stroke="#245bc7" stroke-width="2.4" stroke-linecap="round"/>
<line x1="331.269" y1="441.832" x2="344.074" y2="443.535" stroke="#245bc7" stroke-width="2.4" stroke-linecap="round"/>
<line x1="344.074" y1="443.535" x2="356.424" y2="446.301" stroke="#245bc7" stroke-width="2.4" stroke-linecap="round"/>
<line x1="356.424" y1="446.301" x2="368.108" y2="450.081" stroke="#245bc7" stroke-width="2.4" stroke-linecap="round"/>
<line x1="368.108" y1="450.081" x2="378.926" y2="454.812" stroke="#245bc7" stroke-width="2.4" stroke-linecap="round"/>
<line x1="378.926" y1="454.812" x2="388.692" y2="460.412" stroke="#245bc7" stroke-width="2.4" stroke-linecap="round"/>
<line x1="388.692" y1="460.412" x2="397.241" y2="466.785" stroke="#245bc7" stroke-width="2.4" stroke-linecap="round"/>
<line x1="397.241" y1="466.785" x2="404.425" y2="473.822" stroke="#245bc7" stroke-width="2.4" stroke-linecap="round"/>
<line x1="404.425" y1="473.822" x2="410.123" y2="481.403" stroke="#245bc7" stroke-width="2.4" stroke-linecap="round"/>
<line x1="410.123" y1="481.403" x2="414.234" y2="489.398" stroke="#245bc7" stroke-width="2.4" stroke-linecap="round"/>
<line x1="414.234" y1="489.398" x2="416.691" y2="497.671" stroke="#245bc7" stroke-width="2.4" stroke-linecap="round"/>
<line x1="416.691" y1="497.671" x2="417.451" y2="506.080" stroke="#245bc7" stroke-width="2.4" stroke-linecap="round"/>
<line x1="417.451" y1="506.080" x2="416.501" y2="514.480" stroke="#245bc7" stroke-width="2.4" stroke-linecap="round"/>
<line x1="416.501" y1="514.480" x2="413.857" y2="522.730" stroke="#245bc7" stroke-width="2.4" stroke-linecap="round"/>
<line x1="413.857" y1="522.730" x2="409.564" y2="530.685" stroke="#245bc7" stroke-width="2.4" stroke-linecap="round"/>
<line x1="432.579" y1="345.832" x2="425.243" y2="355.241" stroke="#245bc7" stroke-width="2.4" stroke-linecap="round"/>
<line x1="425.243" y1="355.241" x2="416.066" y2="363.952" stroke="#245bc7" stroke-width="2.4" stroke-linecap="round"/>
<line x1="416.066" y1="363.952" x2="405.200" y2="371.817" stroke="#245bc7" stroke-width="2.4" stroke-linecap="round"/>
<line x1="405.200" y1="371.817" x2="392.835" y2="378.701" stroke="#245bc7" stroke-width="2.4" stroke-linecap="round"/>
<line x1="392.835" y1="378.701" x2="379.179" y2="384.486" stroke="#245bc7" stroke-width="2.4" stroke-linecap="round"/>
<line x1="379.179" y1="384.486" x2="364.470" y2="389.074" stroke="#245bc7" stroke-width="2.4" stroke-linecap="round"/>
<line x1="364.470" y1="389.074" x2="348.955" y2="392.385" stroke="#245bc7" stroke-width="2.4" stroke-linecap="round"/>
<line x1="348.955" y1="392.385" x2="332.903" y2="394.364" stroke="#245bc7" stroke-width="2.4" stroke-linecap="round"/>
<line x1="332.903" y1="394.364" x2="316.587" y2="394.976" stroke="#245bc7" stroke-width="2.4" stroke-linecap="round"/>
<line x1="316.587" y1="394.976" x2="300.288" y2="394.211" stroke="#245bc7" stroke-width="2.4" stroke-linecap="round"/>
<line x1="300.288" y1="394.211" x2="284.283" y2="392.081" stroke="#245bc7" stroke-width="2.4" stroke-linecap="round"/>
<line x1="284.283" y1="392.081" x2="268.845" y2="388.624" stroke="#245bc7" stroke-width="2.4" stroke-linecap="round"/>
<line x1="268.845" y1="388.624" x2="254.240" y2="383.898" stroke="#245bc7" stroke-width="2.4" stroke-linecap="round"/>
<line x1="254.240" y1="383.898" x2="240.718" y2="377.986" stroke="#245bc7" stroke-width="2.4" stroke-linecap="round"/>
<line x1="240.718" y1="377.986" x2="228.510" y2="370.986" stroke="#245bc7" stroke-width="2.4" stroke-linecap="round"/>
<line x1="228.510" y1="370.986" x2="217.824" y2="363.020" stroke="#245bc7" stroke-width="2.4" stroke-linecap="round"/>
<line x1="217.824" y1="363.020" x2="208.844" y2="354.223" stroke="#245bc7" stroke-width="2.4" stroke-linecap="round"/>
<line x1="208.844" y1="354.223" x2="201.722" y2="344.746" stroke="#245bc7" stroke-width="2.4" stroke-linecap="round"/>
<line x1="201.722" y1="344.746" x2="196.583" y2="334.752" stroke="#245bc7" stroke-width="2.4" stroke-linecap="round"/>
<line x1="196.583" y1="334.752" x2="193.510" y2="324.411" stroke="#245bc7" stroke-width="2.4" stroke-linecap="round"/>
<line x1="193.510" y1="324.411" x2="192.561" y2="313.900" stroke="#245bc7" stroke-width="2.4" stroke-linecap="round"/>
<line x1="192.561" y1="313.900" x2="193.749" y2="303.399" stroke="#245bc7" stroke-width="2.4" stroke-linecap="round"/>
<line x1="193.749" y1="303.399" x2="197.055" y2="293.089" stroke="#245bc7" stroke-width="2.4" stroke-linecap="round"/>
<line x1="197.055" y1="293.089" x2="202.421" y2="283.143" stroke="#245bc7" stroke-width="2.4" stroke-linecap="round"/>
<line x1="202.421" y1="283.143" x2="209.757" y2="273.735" stroke="#245bc7" stroke-width="2.4" stroke-linecap="round"/>
<line x1="209.757" y1="273.735" x2="218.934" y2="265.023" stroke="#245bc7" stroke-width="2.4" stroke-linecap="round"/>
<line x1="218.934" y1="265.023" x2="229.800" y2="257.159" stroke="#245bc7" stroke-width="2.4" stroke-linecap="round"/>
<line x1="229.800" y1="257.159" x2="242.165" y2="250.275" stroke="#245bc7" stroke-width="2.4" stroke-linecap="round"/>
<line x1="242.165" y1="250.275" x2="255.821" y2="244.490" stroke="#245bc7" stroke-width="2.4" stroke-linecap="round"/>
<line x1="255.821" y1="244.490" x2="270.530" y2="239.901" stroke="#245bc7" stroke-width="2.4" stroke-linecap="round"/>
<line x1="270.530" y1="239.901" x2="286.045" y2="236.591" stroke="#245bc7" stroke-width="2.4" stroke-linecap="round"/>
<line x1="286.045" y1="236.591" x2="302.097" y2="234.611" stroke="#245bc7" stroke-width="2.4" stroke-linecap="round"/>
<line x1="302.097" y1="234.611" x2="318.413" y2="234.000" stroke="#245bc7" stroke-width="2.4" stroke-linecap="round"/>
<line x1="318.413" y1="234.000" x2="334.712" y2="234.765" stroke="#245bc7" stroke-width="2.4" stroke-linecap="round"/>
<line x1="334.712" y1="234.765" x2="350.717" y2="236.895" stroke="#245bc7" stroke-width="2.4" stroke-linecap="round"/>
<line x1="350.717" y1="236.895" x2="366.155" y2="240.352" stroke="#245bc7" stroke-width="2.4" stroke-linecap="round"/>
<line x1="366.155" y1="240.352" x2="380.760" y2="245.078" stroke="#245bc7" stroke-width="2.4" stroke-linecap="round"/>
<line x1="380.760" y1="245.078" x2="394.282" y2="250.990" stroke="#245bc7" stroke-width="2.4" stroke-linecap="round"/>
<line x1="394.282" y1="250.990" x2="406.490" y2="257.990" stroke="#245bc7" stroke-width="2.4" stroke-linecap="round"/>
<line x1="406.490" y1="257.990" x2="417.176" y2="265.956" stroke="#245bc7" stroke-width="2.4" stroke-linecap="round"/>
<line x1="417.176" y1="265.956" x2="426.156" y2="274.753" stroke="#245bc7" stroke-width="2.4" stroke-linecap="round"/>
<line x1="426.156" y1="274.753" x2="433.278" y2="284.229" stroke="#245bc7" stroke-width="2.4" stroke-linecap="round"/>
<line x1="433.278" y1="284.229" x2="438.417" y2="294.224" stroke="#245bc7" stroke-width="2.4" stroke-linecap="round"/>
<line x1="438.417" y1="294.224" x2="441.490" y2="304.565" stroke="#245bc7" stroke-width="2.4" stroke-linecap="round"/>
<line x1="441.490" y1="304.565" x2="442.439" y2="315.076" stroke="#245bc7" stroke-width="2.4" stroke-linecap="round"/>
<line x1="442.439" y1="315.076" x2="441.251" y2="325.576" stroke="#245bc7" stroke-width="2.4" stroke-linecap="round"/>
<line x1="441.251" y1="325.576" x2="437.945" y2="335.887" stroke="#245bc7" stroke-width="2.4" stroke-linecap="round"/>
<line x1="437.945" y1="335.887" x2="432.579" y2="345.832" stroke="#245bc7" stroke-width="2.4" stroke-linecap="round"/>
<line x1="409.564" y1="530.685" x2="410.316" y2="530.880" stroke="#245bc7" stroke-width="2.4" stroke-linecap="round"/>
<line x1="410.316" y1="530.880" x2="411.069" y2="531.054" stroke="#245bc7" stroke-width="2.4" stroke-linecap="round"/>
<line x1="411.069" y1="531.054" x2="411.819" y2="531.208" stroke="#245bc7" stroke-width="2.4" stroke-linecap="round"/>
<line x1="411.819" y1="531.208" x2="412.568" y2="531.340" stroke="#245bc7" stroke-width="2.4" stroke-linecap="round"/>
<line x1="412.568" y1="531.340" x2="413.313" y2="531.451" stroke="#245bc7" stroke-width="2.4" stroke-linecap="round"/>
<line x1="413.313" y1="531.451" x2="414.054" y2="531.541" stroke="#245bc7" stroke-width="2.4" stroke-linecap="round"/>
<line x1="414.054" y1="531.541" x2="414.790" y2="531.610" stroke="#245bc7" stroke-width="2.4" stroke-linecap="round"/>
<line x1="414.790" y1="531.610" x2="415.520" y2="531.657" stroke="#245bc7" stroke-width="2.4" stroke-linecap="round"/>
<line x1="415.520" y1="531.657" x2="416.245" y2="531.682" stroke="#245bc7" stroke-width="2.4" stroke-linecap="round"/>
<line x1="416.245" y1="531.682" x2="416.962" y2="531.687" stroke="#245bc7" stroke-width="2.4" stroke-linecap="round"/>
<line x1="416.962" y1="531.687" x2="417.671" y2="531.668" stroke="#245bc7" stroke-width="2.4" stroke-linecap="round"/>
<line x1="417.671" y1="531.668" x2="418.372" y2="531.630" stroke="#245bc7" stroke-width="2.4" stroke-linecap="round"/>
<line x1="418.372" y1="531.630" x2="419.062" y2="531.569" stroke="#245bc7" stroke-width="2.4" stroke-linecap="round"/>
<line x1="419.062" y1="531.569" x2="419.743" y2="531.487" stroke="#245bc7" stroke-width="2.4" stroke-linecap="round"/>
<line x1="419.743" y1="531.487" x2="420.413" y2="531.383" stroke="#245bc7" stroke-width="2.4" stroke-linecap="round"/>
<line x1="420.413" y1="531.383" x2="421.071" y2="531.260" stroke="#245bc7" stroke-width="2.4" stroke-linecap="round"/>
<line x1="421.071" y1="531.260" x2="421.717" y2="531.113" stroke="#245bc7" stroke-width="2.4" stroke-linecap="round"/>
<line x1="421.717" y1="531.113" x2="422.350" y2="530.947" stroke="#245bc7" stroke-width="2.4" stroke-linecap="round"/>
<line x1="422.350" y1="530.947" x2="422.970" y2="530.760" stroke="#245bc7" stroke-width="2.4" stroke-linecap="round"/>
<line x1="422.970" y1="530.760" x2="423.574" y2="530.552" stroke="#245bc7" stroke-width="2.4" stroke-linecap="round"/>
<line x1="423.574" y1="530.552" x2="424.165" y2="530.324" stroke="#245bc7" stroke-width="2.4" stroke-linecap="round"/>
<line x1="424.165" y1="530.324" x2="424.739" y2="530.076" stroke="#245bc7" stroke-width="2.4" stroke-linecap="round"/>
<line x1="424.739" y1="530.076" x2="425.297" y2="529.808" stroke="#245bc7" stroke-width="2.4" stroke-linecap="round"/>
<line x1="425.297" y1="529.808" x2="425.838" y2="529.520" stroke="#245bc7" stroke-width="2.4" stroke-linecap="round"/>
<line x1="425.838" y1="529.520" x2="426.362" y2="529.214" stroke="#245bc7" stroke-width="2.4" stroke-linecap="round"/>
<line x1="426.362" y1="529.214" x2="426.868" y2="528.888" stroke="#245bc7" stroke-width="2.4" stroke-linecap="round"/>
<line x1="426.868" y1="528.888" x2="427.355" y2="528.544" stroke="#245bc7" stroke-width="2.4" stroke-linecap="round"/>
<line x1="427.355" y1="528.544" x2="427.823" y2="528.181" stroke="#245bc7" stroke-width="2.4" stroke-linecap="round"/>
<line x1="427.823" y1="528.181" x2="428.272" y2="527.802" stroke="#245bc7" stroke-width="2.4" stroke-linecap="round"/>
<line x1="428.272" y1="527.802" x2="428.700" y2="527.403" stroke="#245bc7" stroke-width="2.4" stroke-linecap="round"/>
<line x1="428.700" y1="527.403" x2="429.109" y2="526.989" stroke="#245bc7" stroke-width="2.4" stroke-linecap="round"/>
<line x1="429.109" y1="526.989" x2="429.496" y2="526.558" stroke="#245bc7" stroke-width="2.4" stroke-linecap="round"/>
<line x1="429.496" y1="526.558" x2="429.861" y2="526.111" stroke="#245bc7" stroke-width="2.4" stroke-linecap="round"/>
<line x1="429.861" y1="526.111" x2="430.205" y2="525.649" stroke="#245bc7" stroke-width="2.4" stroke-linecap="round"/>
<line x1="430.205" y1="525.649" x2="430.528" y2="525.171" stroke="#245bc7" stroke-width="2.4" stroke-linecap="round"/>
<line x1="430.528" y1="525.171" x2="430.828" y2="524.679" stroke="#245bc7" stroke-width="2.4" stroke-linecap="round"/>
<line x1="430.828" y1="524.679" x2="431.104" y2="524.172" stroke="#245bc7" stroke-width="2.4" stroke-linecap="round"/>
<line x1="431.104" y1="524.172" x2="431.358" y2="523.653" stroke="#245bc7" stroke-width="2.4" stroke-linecap="round"/>
<line x1="431.358" y1="523.653" x2="431.589" y2="523.120" stroke="#245bc7" stroke-width="2.4" stroke-linecap="round"/>
<line x1="431.589" y1="523.120" x2="431.796" y2="522.575" stroke="#245bc7" stroke-width="2.4" stroke-linecap="round"/>
<line x1="431.796" y1="522.575" x2="431.979" y2="522.019" stroke="#245bc7" stroke-width="2.4" stroke-linecap="round"/>
<line x1="431.979" y1="522.019" x2="432.137" y2="521.450" stroke="#245bc7" stroke-width="2.4" stroke-linecap="round"/>
<line x1="432.137" y1="521.450" x2="432.272" y2="520.872" stroke="#245bc7" stroke-width="2.4" stroke-linecap="round"/>
<line x1="432.272" y1="520.872" x2="432.383" y2="520.283" stroke="#245bc7" stroke-width="2.4" stroke-linecap="round"/>
<line x1="432.383" y1="520.283" x2="432.469" y2="519.685" stroke="#245bc7" stroke-width="2.4" stroke-linecap="round"/>
<line x1="432.469" y1="519.685" x2="432.530" y2="519.078" stroke="#245bc7" stroke-width="2.4" stroke-linecap="round"/>
<line x1="432.530" y1="519.078" x2="432.567" y2="518.463" stroke="#245bc7" stroke-width="2.4" stroke-linecap="round"/>
<line x1="432.567" y1="518.463" x2="432.579" y2="517.842" stroke="#245bc7" stroke-width="2.4" stroke-linecap="round"/>
<line x1="432.579" y1="345.832" x2="432.579" y2="517.842" stroke="#245bc7" stroke-width="2.4" stroke-linecap="round"/>
<circle cx="432.579" cy="517.842" r="4.2" fill="#c26d26" stroke="#ffffff" stroke-width="1.4"/>
<circle cx="409.564" cy="530.685" r="4.2" fill="#c26d26" stroke="#ffffff" stroke-width="1.4"/>
<circle cx="432.579" cy="345.832" r="4.2" fill="#c26d26" stroke="#ffffff" stroke-width="1.4"/>
<text x="78" y="632" font-family="Arial, sans-serif" font-size="13" fill="#60708d">Max vertex gap: 0 m</text>
<rect x="625" y="118" width="535" height="548" rx="18" fill="#ffffff" stroke="#dde5f1"/>
<text x="653" y="158" font-family="Arial, sans-serif" font-size="22" font-weight="700" fill="#17233c">Rim chamfer</text>
<text x="653" y="184" font-family="Arial, sans-serif" font-size="14" fill="#60708d">3 vertices · 5 edges · 4 faces · 10 uses · 0 flaws</text>
<line x1="669" y1="212.00" x2="1116" y2="212.00" stroke="#edf1f7"/>
<line x1="669" y1="307.00" x2="1116" y2="307.00" stroke="#edf1f7"/>
<line x1="669" y1="402.00" x2="1116" y2="402.00" stroke="#edf1f7"/>
<line x1="669" y1="497.00" x2="1116" y2="497.00" stroke="#edf1f7"/>
<line x1="669" y1="592.00" x2="1116" y2="592.00" stroke="#edf1f7"/>
<line x1="826.075" y1="400.129" x2="1056.234" y2="462.818" stroke="#c6d0df" stroke-width="1" stroke-dasharray="5 5"/>
<line x1="728.766" y1="548.402" x2="958.925" y2="611.090" stroke="#c6d0df" stroke-width="1" stroke-dasharray="5 5"/>
<line x1="826.075" y1="209.007" x2="1056.234" y2="271.696" stroke="#c6d0df" stroke-width="1" stroke-dasharray="5 5"/>
<line x1="728.766" y1="357.280" x2="958.925" y2="419.968" stroke="#c6d0df" stroke-width="1" stroke-dasharray="5 5"/>
<line x1="826.075" y1="400.129" x2="728.766" y2="548.402" stroke="#c6d0df" stroke-width="1" stroke-dasharray="5 5"/>
<line x1="1056.234" y1="462.818" x2="958.925" y2="611.090" stroke="#c6d0df" stroke-width="1" stroke-dasharray="5 5"/>
<line x1="826.075" y1="209.007" x2="728.766" y2="357.280" stroke="#c6d0df" stroke-width="1" stroke-dasharray="5 5"/>
<line x1="1056.234" y1="271.696" x2="958.925" y2="419.968" stroke="#c6d0df" stroke-width="1" stroke-dasharray="5 5"/>
<line x1="826.075" y1="400.129" x2="826.075" y2="209.007" stroke="#c6d0df" stroke-width="1" stroke-dasharray="5 5"/>
<line x1="1056.234" y1="462.818" x2="1056.234" y2="271.696" stroke="#c6d0df" stroke-width="1" stroke-dasharray="5 5"/>
<line x1="728.766" y1="548.402" x2="728.766" y2="357.280" stroke="#c6d0df" stroke-width="1" stroke-dasharray="5 5"/>
<line x1="958.925" y1="611.090" x2="958.925" y2="419.968" stroke="#c6d0df" stroke-width="1" stroke-dasharray="5 5"/>
<line x1="1007.579" y1="517.842" x2="1000.243" y2="527.251" stroke="#245bc7" stroke-width="2.4" stroke-linecap="round"/>
<line x1="1000.243" y1="527.251" x2="991.066" y2="535.962" stroke="#245bc7" stroke-width="2.4" stroke-linecap="round"/>
<line x1="991.066" y1="535.962" x2="980.200" y2="543.826" stroke="#245bc7" stroke-width="2.4" stroke-linecap="round"/>
<line x1="980.200" y1="543.826" x2="967.835" y2="550.711" stroke="#245bc7" stroke-width="2.4" stroke-linecap="round"/>
<line x1="967.835" y1="550.711" x2="954.179" y2="556.496" stroke="#245bc7" stroke-width="2.4" stroke-linecap="round"/>
<line x1="954.179" y1="556.496" x2="939.470" y2="561.084" stroke="#245bc7" stroke-width="2.4" stroke-linecap="round"/>
<line x1="939.470" y1="561.084" x2="923.955" y2="564.395" stroke="#245bc7" stroke-width="2.4" stroke-linecap="round"/>
<line x1="923.955" y1="564.395" x2="907.903" y2="566.374" stroke="#245bc7" stroke-width="2.4" stroke-linecap="round"/>
<line x1="907.903" y1="566.374" x2="891.587" y2="566.985" stroke="#245bc7" stroke-width="2.4" stroke-linecap="round"/>
<line x1="891.587" y1="566.985" x2="875.288" y2="566.221" stroke="#245bc7" stroke-width="2.4" stroke-linecap="round"/>
<line x1="875.288" y1="566.221" x2="859.283" y2="564.091" stroke="#245bc7" stroke-width="2.4" stroke-linecap="round"/>
<line x1="859.283" y1="564.091" x2="843.845" y2="560.634" stroke="#245bc7" stroke-width="2.4" stroke-linecap="round"/>
<line x1="843.845" y1="560.634" x2="829.240" y2="555.908" stroke="#245bc7" stroke-width="2.4" stroke-linecap="round"/>
<line x1="829.240" y1="555.908" x2="815.718" y2="549.996" stroke="#245bc7" stroke-width="2.4" stroke-linecap="round"/>
<line x1="815.718" y1="549.996" x2="803.510" y2="542.996" stroke="#245bc7" stroke-width="2.4" stroke-linecap="round"/>
<line x1="803.510" y1="542.996" x2="792.824" y2="535.030" stroke="#245bc7" stroke-width="2.4" stroke-linecap="round"/>
<line x1="792.824" y1="535.030" x2="783.844" y2="526.232" stroke="#245bc7" stroke-width="2.4" stroke-linecap="round"/>
<line x1="783.844" y1="526.232" x2="776.722" y2="516.756" stroke="#245bc7" stroke-width="2.4" stroke-linecap="round"/>
<line x1="776.722" y1="516.756" x2="771.583" y2="506.762" stroke="#245bc7" stroke-width="2.4" stroke-linecap="round"/>
<line x1="771.583" y1="506.762" x2="768.510" y2="496.421" stroke="#245bc7" stroke-width="2.4" stroke-linecap="round"/>
<line x1="768.510" y1="496.421" x2="767.561" y2="485.910" stroke="#245bc7" stroke-width="2.4" stroke-linecap="round"/>
<line x1="767.561" y1="485.910" x2="768.749" y2="475.409" stroke="#245bc7" stroke-width="2.4" stroke-linecap="round"/>
<line x1="768.749" y1="475.409" x2="772.055" y2="465.099" stroke="#245bc7" stroke-width="2.4" stroke-linecap="round"/>
<line x1="772.055" y1="465.099" x2="777.421" y2="455.153" stroke="#245bc7" stroke-width="2.4" stroke-linecap="round"/>
<line x1="777.421" y1="455.153" x2="784.757" y2="445.745" stroke="#245bc7" stroke-width="2.4" stroke-linecap="round"/>
<line x1="784.757" y1="445.745" x2="793.934" y2="437.033" stroke="#245bc7" stroke-width="2.4" stroke-linecap="round"/>
<line x1="793.934" y1="437.033" x2="804.800" y2="429.169" stroke="#245bc7" stroke-width="2.4" stroke-linecap="round"/>
<line x1="804.800" y1="429.169" x2="817.165" y2="422.285" stroke="#245bc7" stroke-width="2.4" stroke-linecap="round"/>
<line x1="817.165" y1="422.285" x2="830.821" y2="416.500" stroke="#245bc7" stroke-width="2.4" stroke-linecap="round"/>
<line x1="830.821" y1="416.500" x2="845.530" y2="411.911" stroke="#245bc7" stroke-width="2.4" stroke-linecap="round"/>
<line x1="845.530" y1="411.911" x2="861.045" y2="408.601" stroke="#245bc7" stroke-width="2.4" stroke-linecap="round"/>
<line x1="861.045" y1="408.601" x2="877.097" y2="406.621" stroke="#245bc7" stroke-width="2.4" stroke-linecap="round"/>
<line x1="877.097" y1="406.621" x2="893.413" y2="406.010" stroke="#245bc7" stroke-width="2.4" stroke-linecap="round"/>
<line x1="893.413" y1="406.010" x2="909.712" y2="406.775" stroke="#245bc7" stroke-width="2.4" stroke-linecap="round"/>
<line x1="909.712" y1="406.775" x2="925.717" y2="408.905" stroke="#245bc7" stroke-width="2.4" stroke-linecap="round"/>
<line x1="925.717" y1="408.905" x2="941.155" y2="412.362" stroke="#245bc7" stroke-width="2.4" stroke-linecap="round"/>
<line x1="941.155" y1="412.362" x2="955.760" y2="417.087" stroke="#245bc7" stroke-width="2.4" stroke-linecap="round"/>
<line x1="955.760" y1="417.087" x2="969.282" y2="423.000" stroke="#245bc7" stroke-width="2.4" stroke-linecap="round"/>
<line x1="969.282" y1="423.000" x2="981.490" y2="430.000" stroke="#245bc7" stroke-width="2.4" stroke-linecap="round"/>
<line x1="981.490" y1="430.000" x2="992.176" y2="437.966" stroke="#245bc7" stroke-width="2.4" stroke-linecap="round"/>
<line x1="992.176" y1="437.966" x2="1001.156" y2="446.763" stroke="#245bc7" stroke-width="2.4" stroke-linecap="round"/>
<line x1="1001.156" y1="446.763" x2="1008.278" y2="456.239" stroke="#245bc7" stroke-width="2.4" stroke-linecap="round"/>
<line x1="1008.278" y1="456.239" x2="1013.417" y2="466.234" stroke="#245bc7" stroke-width="2.4" stroke-linecap="round"/>
<line x1="1013.417" y1="466.234" x2="1016.490" y2="476.575" stroke="#245bc7" stroke-width="2.4" stroke-linecap="round"/>
<line x1="1016.490" y1="476.575" x2="1017.439" y2="487.086" stroke="#245bc7" stroke-width="2.4" stroke-linecap="round"/>
<line x1="1017.439" y1="487.086" x2="1016.251" y2="497.586" stroke="#245bc7" stroke-width="2.4" stroke-linecap="round"/>
<line x1="1016.251" y1="497.586" x2="1012.945" y2="507.897" stroke="#245bc7" stroke-width="2.4" stroke-linecap="round"/>
<line x1="1012.945" y1="507.897" x2="1007.579" y2="517.842" stroke="#245bc7" stroke-width="2.4" stroke-linecap="round"/>
<line x1="984.564" y1="530.685" x2="978.696" y2="538.212" stroke="#245bc7" stroke-width="2.4" stroke-linecap="round"/>
<line x1="978.696" y1="538.212" x2="971.352" y2="545.182" stroke="#245bc7" stroke-width="2.4" stroke-linecap="round"/>
<line x1="971.352" y1="545.182" x2="962.660" y2="551.473" stroke="#245bc7" stroke-width="2.4" stroke-linecap="round"/>
<line x1="962.660" y1="551.473" x2="952.767" y2="556.980" stroke="#245bc7" stroke-width="2.4" stroke-linecap="round"/>
<line x1="952.767" y1="556.980" x2="941.843" y2="561.609" stroke="#245bc7" stroke-width="2.4" stroke-linecap="round"/>
<line x1="941.843" y1="561.609" x2="930.076" y2="565.279" stroke="#245bc7" stroke-width="2.4" stroke-linecap="round"/>
<line x1="930.076" y1="565.279" x2="917.665" y2="567.928" stroke="#245bc7" stroke-width="2.4" stroke-linecap="round"/>
<line x1="917.665" y1="567.928" x2="904.823" y2="569.511" stroke="#245bc7" stroke-width="2.4" stroke-linecap="round"/>
<line x1="904.823" y1="569.511" x2="891.771" y2="570.000" stroke="#245bc7" stroke-width="2.4" stroke-linecap="round"/>
<line x1="891.771" y1="570.000" x2="878.731" y2="569.388" stroke="#245bc7" stroke-width="2.4" stroke-linecap="round"/>
<line x1="878.731" y1="569.388" x2="865.926" y2="567.685" stroke="#245bc7" stroke-width="2.4" stroke-linecap="round"/>
<line x1="865.926" y1="567.685" x2="853.576" y2="564.919" stroke="#245bc7" stroke-width="2.4" stroke-linecap="round"/>
<line x1="853.576" y1="564.919" x2="841.892" y2="561.139" stroke="#245bc7" stroke-width="2.4" stroke-linecap="round"/>
<line x1="841.892" y1="561.139" x2="831.074" y2="556.408" stroke="#245bc7" stroke-width="2.4" stroke-linecap="round"/>
<line x1="831.074" y1="556.408" x2="821.308" y2="550.808" stroke="#245bc7" stroke-width="2.4" stroke-linecap="round"/>
<line x1="821.308" y1="550.808" x2="812.759" y2="544.435" stroke="#245bc7" stroke-width="2.4" stroke-linecap="round"/>
<line x1="812.759" y1="544.435" x2="805.575" y2="537.398" stroke="#245bc7" stroke-width="2.4" stroke-linecap="round"/>
<line x1="805.575" y1="537.398" x2="799.877" y2="529.817" stroke="#245bc7" stroke-width="2.4" stroke-linecap="round"/>
<line x1="799.877" y1="529.817" x2="795.766" y2="521.821" stroke="#245bc7" stroke-width="2.4" stroke-linecap="round"/>
<line x1="795.766" y1="521.821" x2="793.309" y2="513.548" stroke="#245bc7" stroke-width="2.4" stroke-linecap="round"/>
<line x1="793.309" y1="513.548" x2="792.549" y2="505.140" stroke="#245bc7" stroke-width="2.4" stroke-linecap="round"/>
<line x1="792.549" y1="505.140" x2="793.499" y2="496.740" stroke="#245bc7" stroke-width="2.4" stroke-linecap="round"/>
<line x1="793.499" y1="496.740" x2="796.143" y2="488.490" stroke="#245bc7" stroke-width="2.4" stroke-linecap="round"/>
<line x1="796.143" y1="488.490" x2="800.436" y2="480.534" stroke="#245bc7" stroke-width="2.4" stroke-linecap="round"/>
<line x1="800.436" y1="480.534" x2="806.304" y2="473.008" stroke="#245bc7" stroke-width="2.4" stroke-linecap="round"/>
<line x1="806.304" y1="473.008" x2="813.648" y2="466.038" stroke="#245bc7" stroke-width="2.4" stroke-linecap="round"/>
<line x1="813.648" y1="466.038" x2="822.340" y2="459.747" stroke="#245bc7" stroke-width="2.4" stroke-linecap="round"/>
<line x1="822.340" y1="459.747" x2="832.233" y2="454.239" stroke="#245bc7" stroke-width="2.4" stroke-linecap="round"/>
<line x1="832.233" y1="454.239" x2="843.157" y2="449.611" stroke="#245bc7" stroke-width="2.4" stroke-linecap="round"/>
<line x1="843.157" y1="449.611" x2="854.924" y2="445.941" stroke="#245bc7" stroke-width="2.4" stroke-linecap="round"/>
<line x1="854.924" y1="445.941" x2="867.335" y2="443.292" stroke="#245bc7" stroke-width="2.4" stroke-linecap="round"/>
<line x1="867.335" y1="443.292" x2="880.177" y2="441.709" stroke="#245bc7" stroke-width="2.4" stroke-linecap="round"/>
<line x1="880.177" y1="441.709" x2="893.229" y2="441.220" stroke="#245bc7" stroke-width="2.4" stroke-linecap="round"/>
<line x1="893.229" y1="441.220" x2="906.269" y2="441.832" stroke="#245bc7" stroke-width="2.4" stroke-linecap="round"/>
<line x1="906.269" y1="441.832" x2="919.074" y2="443.535" stroke="#245bc7" stroke-width="2.4" stroke-linecap="round"/>
<line x1="919.074" y1="443.535" x2="931.424" y2="446.301" stroke="#245bc7" stroke-width="2.4" stroke-linecap="round"/>
<line x1="931.424" y1="446.301" x2="943.108" y2="450.081" stroke="#245bc7" stroke-width="2.4" stroke-linecap="round"/>
<line x1="943.108" y1="450.081" x2="953.926" y2="454.812" stroke="#245bc7" stroke-width="2.4" stroke-linecap="round"/>
<line x1="953.926" y1="454.812" x2="963.692" y2="460.412" stroke="#245bc7" stroke-width="2.4" stroke-linecap="round"/>
<line x1="963.692" y1="460.412" x2="972.241" y2="466.785" stroke="#245bc7" stroke-width="2.4" stroke-linecap="round"/>
<line x1="972.241" y1="466.785" x2="979.425" y2="473.822" stroke="#245bc7" stroke-width="2.4" stroke-linecap="round"/>
<line x1="979.425" y1="473.822" x2="985.123" y2="481.403" stroke="#245bc7" stroke-width="2.4" stroke-linecap="round"/>
<line x1="985.123" y1="481.403" x2="989.234" y2="489.398" stroke="#245bc7" stroke-width="2.4" stroke-linecap="round"/>
<line x1="989.234" y1="489.398" x2="991.691" y2="497.671" stroke="#245bc7" stroke-width="2.4" stroke-linecap="round"/>
<line x1="991.691" y1="497.671" x2="992.451" y2="506.080" stroke="#245bc7" stroke-width="2.4" stroke-linecap="round"/>
<line x1="992.451" y1="506.080" x2="991.501" y2="514.480" stroke="#245bc7" stroke-width="2.4" stroke-linecap="round"/>
<line x1="991.501" y1="514.480" x2="988.857" y2="522.730" stroke="#245bc7" stroke-width="2.4" stroke-linecap="round"/>
<line x1="988.857" y1="522.730" x2="984.564" y2="530.685" stroke="#245bc7" stroke-width="2.4" stroke-linecap="round"/>
<line x1="1007.579" y1="345.832" x2="1000.243" y2="355.241" stroke="#245bc7" stroke-width="2.4" stroke-linecap="round"/>
<line x1="1000.243" y1="355.241" x2="991.066" y2="363.952" stroke="#245bc7" stroke-width="2.4" stroke-linecap="round"/>
<line x1="991.066" y1="363.952" x2="980.200" y2="371.817" stroke="#245bc7" stroke-width="2.4" stroke-linecap="round"/>
<line x1="980.200" y1="371.817" x2="967.835" y2="378.701" stroke="#245bc7" stroke-width="2.4" stroke-linecap="round"/>
<line x1="967.835" y1="378.701" x2="954.179" y2="384.486" stroke="#245bc7" stroke-width="2.4" stroke-linecap="round"/>
<line x1="954.179" y1="384.486" x2="939.470" y2="389.074" stroke="#245bc7" stroke-width="2.4" stroke-linecap="round"/>
<line x1="939.470" y1="389.074" x2="923.955" y2="392.385" stroke="#245bc7" stroke-width="2.4" stroke-linecap="round"/>
<line x1="923.955" y1="392.385" x2="907.903" y2="394.364" stroke="#245bc7" stroke-width="2.4" stroke-linecap="round"/>
<line x1="907.903" y1="394.364" x2="891.587" y2="394.976" stroke="#245bc7" stroke-width="2.4" stroke-linecap="round"/>
<line x1="891.587" y1="394.976" x2="875.288" y2="394.211" stroke="#245bc7" stroke-width="2.4" stroke-linecap="round"/>
<line x1="875.288" y1="394.211" x2="859.283" y2="392.081" stroke="#245bc7" stroke-width="2.4" stroke-linecap="round"/>
<line x1="859.283" y1="392.081" x2="843.845" y2="388.624" stroke="#245bc7" stroke-width="2.4" stroke-linecap="round"/>
<line x1="843.845" y1="388.624" x2="829.240" y2="383.898" stroke="#245bc7" stroke-width="2.4" stroke-linecap="round"/>
<line x1="829.240" y1="383.898" x2="815.718" y2="377.986" stroke="#245bc7" stroke-width="2.4" stroke-linecap="round"/>
<line x1="815.718" y1="377.986" x2="803.510" y2="370.986" stroke="#245bc7" stroke-width="2.4" stroke-linecap="round"/>
<line x1="803.510" y1="370.986" x2="792.824" y2="363.020" stroke="#245bc7" stroke-width="2.4" stroke-linecap="round"/>
<line x1="792.824" y1="363.020" x2="783.844" y2="354.223" stroke="#245bc7" stroke-width="2.4" stroke-linecap="round"/>
<line x1="783.844" y1="354.223" x2="776.722" y2="344.746" stroke="#245bc7" stroke-width="2.4" stroke-linecap="round"/>
<line x1="776.722" y1="344.746" x2="771.583" y2="334.752" stroke="#245bc7" stroke-width="2.4" stroke-linecap="round"/>
<line x1="771.583" y1="334.752" x2="768.510" y2="324.411" stroke="#245bc7" stroke-width="2.4" stroke-linecap="round"/>
<line x1="768.510" y1="324.411" x2="767.561" y2="313.900" stroke="#245bc7" stroke-width="2.4" stroke-linecap="round"/>
<line x1="767.561" y1="313.900" x2="768.749" y2="303.399" stroke="#245bc7" stroke-width="2.4" stroke-linecap="round"/>
<line x1="768.749" y1="303.399" x2="772.055" y2="293.089" stroke="#245bc7" stroke-width="2.4" stroke-linecap="round"/>
<line x1="772.055" y1="293.089" x2="777.421" y2="283.143" stroke="#245bc7" stroke-width="2.4" stroke-linecap="round"/>
<line x1="777.421" y1="283.143" x2="784.757" y2="273.735" stroke="#245bc7" stroke-width="2.4" stroke-linecap="round"/>
<line x1="784.757" y1="273.735" x2="793.934" y2="265.023" stroke="#245bc7" stroke-width="2.4" stroke-linecap="round"/>
<line x1="793.934" y1="265.023" x2="804.800" y2="257.159" stroke="#245bc7" stroke-width="2.4" stroke-linecap="round"/>
<line x1="804.800" y1="257.159" x2="817.165" y2="250.275" stroke="#245bc7" stroke-width="2.4" stroke-linecap="round"/>
<line x1="817.165" y1="250.275" x2="830.821" y2="244.490" stroke="#245bc7" stroke-width="2.4" stroke-linecap="round"/>
<line x1="830.821" y1="244.490" x2="845.530" y2="239.901" stroke="#245bc7" stroke-width="2.4" stroke-linecap="round"/>
<line x1="845.530" y1="239.901" x2="861.045" y2="236.591" stroke="#245bc7" stroke-width="2.4" stroke-linecap="round"/>
<line x1="861.045" y1="236.591" x2="877.097" y2="234.611" stroke="#245bc7" stroke-width="2.4" stroke-linecap="round"/>
<line x1="877.097" y1="234.611" x2="893.413" y2="234.000" stroke="#245bc7" stroke-width="2.4" stroke-linecap="round"/>
<line x1="893.413" y1="234.000" x2="909.712" y2="234.765" stroke="#245bc7" stroke-width="2.4" stroke-linecap="round"/>
<line x1="909.712" y1="234.765" x2="925.717" y2="236.895" stroke="#245bc7" stroke-width="2.4" stroke-linecap="round"/>
<line x1="925.717" y1="236.895" x2="941.155" y2="240.352" stroke="#245bc7" stroke-width="2.4" stroke-linecap="round"/>
<line x1="941.155" y1="240.352" x2="955.760" y2="245.078" stroke="#245bc7" stroke-width="2.4" stroke-linecap="round"/>
<line x1="955.760" y1="245.078" x2="969.282" y2="250.990" stroke="#245bc7" stroke-width="2.4" stroke-linecap="round"/>
<line x1="969.282" y1="250.990" x2="981.490" y2="257.990" stroke="#245bc7" stroke-width="2.4" stroke-linecap="round"/>
<line x1="981.490" y1="257.990" x2="992.176" y2="265.956" stroke="#245bc7" stroke-width="2.4" stroke-linecap="round"/>
<line x1="992.176" y1="265.956" x2="1001.156" y2="274.753" stroke="#245bc7" stroke-width="2.4" stroke-linecap="round"/>
<line x1="1001.156" y1="274.753" x2="1008.278" y2="284.229" stroke="#245bc7" stroke-width="2.4" stroke-linecap="round"/>
<line x1="1008.278" y1="284.229" x2="1013.417" y2="294.224" stroke="#245bc7" stroke-width="2.4" stroke-linecap="round"/>
<line x1="1013.417" y1="294.224" x2="1016.490" y2="304.565" stroke="#245bc7" stroke-width="2.4" stroke-linecap="round"/>
<line x1="1016.490" y1="304.565" x2="1017.439" y2="315.076" stroke="#245bc7" stroke-width="2.4" stroke-linecap="round"/>
<line x1="1017.439" y1="315.076" x2="1016.251" y2="325.576" stroke="#245bc7" stroke-width="2.4" stroke-linecap="round"/>
<line x1="1016.251" y1="325.576" x2="1012.945" y2="335.887" stroke="#245bc7" stroke-width="2.4" stroke-linecap="round"/>
<line x1="1012.945" y1="335.887" x2="1007.579" y2="345.832" stroke="#245bc7" stroke-width="2.4" stroke-linecap="round"/>
<line x1="1007.579" y1="517.842" x2="984.564" y2="530.685" stroke="#245bc7" stroke-width="2.4" stroke-linecap="round"/>
<line x1="1007.579" y1="345.832" x2="1007.579" y2="517.842" stroke="#245bc7" stroke-width="2.4" stroke-linecap="round"/>
<circle cx="1007.579" cy="517.842" r="4.2" fill="#c26d26" stroke="#ffffff" stroke-width="1.4"/>
<circle cx="984.564" cy="530.685" r="4.2" fill="#c26d26" stroke="#ffffff" stroke-width="1.4"/>
<circle cx="1007.579" cy="345.832" r="4.2" fill="#c26d26" stroke="#ffffff" stroke-width="1.4"/>
<text x="653" y="632" font-family="Arial, sans-serif" font-size="13" fill="#60708d">Max vertex gap: 0 m</text>
</svg>
